<?xml version="1.0" encoding="UTF-8"?>
<svg width="80px" height="80px" viewBox="0 0 80 80" version="1.1" xmlns="http://www.w3.org/2000/svg" xmlns:xlink="http://www.w3.org/1999/xlink">
    <!-- Generator: Sketch 52.3 (67297) - http://www.bohemiancoding.com/sketch -->
    <title>Group 7</title>
    <desc>Created with Sketch.</desc>
    <defs>
        <path d="M59.3278265,39.8102358 C59.3675665,39.5204964 59.4004939,39.2301889 59.4368276,38.9404495 C59.4811093,38.5876491 59.5276619,38.2342807 59.5662664,37.8809122 C59.6077096,37.5036828 59.6412047,37.1270216 59.6769707,36.7509285 C59.7025178,36.4765282 59.7320389,36.2021279 59.7547475,35.9277276 C59.7876749,35.5277736 59.8126543,35.1278196 59.8387692,34.7272975 C59.8558006,34.4722132 59.8762383,34.2171288 59.8904312,33.9614764 C59.9114366,33.5751572 59.9250617,33.188838 59.9398223,32.8025187 C59.9506089,32.5292547 59.9648017,32.2559907 59.972182,31.9832947 C59.9818331,31.6316306 59.984104,31.2805346 59.9886457,30.9300067 C59.9926197,30.6198151 60,30.3096235 60,30 C60,29.6903765 59.9926197,29.3801849 59.9886457,29.0699933 C59.984104,28.7194654 59.9818331,28.3678013 59.972182,28.0167053 C59.9648017,27.7440094 59.9506089,27.4707453 59.9398223,27.1974813 C59.9250617,26.8111621 59.9114366,26.4242747 59.8904312,26.0385236 C59.8762383,25.7834393 59.8558006,25.5277869 59.8387692,25.2727026 C59.8126543,24.8721804 59.7876749,24.4722264 59.7547475,24.0722724 C59.7320389,23.7978721 59.7025178,23.5234719 59.6769707,23.2490716 C59.6412047,22.8729785 59.6077096,22.4957491 59.5662664,22.1190879 C59.5276619,21.7657194 59.4811093,21.412919 59.4368276,21.0595506 C59.4004939,20.769243 59.3675665,20.4795036 59.3278265,20.1897642 C59.2540237,19.6494854 59.1705697,19.1092066 59.0842772,18.5683597 C59.0689489,18.4729161 59.0564592,18.3774725 59.0411309,18.2825971 C58.8163161,16.9100276 58.5551676,15.5385944 58.2520083,14.1694336 C56.8060405,7.63609377 52.5725964,3.331475 46.1176871,1.80437783 C45.8326947,1.72370529 45.5437282,1.64644144 45.2490846,1.575995 C44.9828266,1.51179783 44.7086207,1.47316591 44.4304408,1.44248762 C39.6338244,0.482370724 34.8167703,-0.0050732383 29.9997161,3.98102521e-05 C25.182662,-0.0050732383 20.3656079,0.482370724 15.5689915,1.44248762 C15.2913793,1.47316591 15.0166056,1.51179783 14.7503477,1.575995 C14.4557041,1.64644144 14.1673053,1.72370529 13.8823129,1.80437783 C7.42740356,3.331475 3.19395952,7.63552565 1.74799171,14.1694336 C1.44483238,15.5385944 1.18311618,16.9100276 0.958869114,18.2825971 C0.942973119,18.3786088 0.930483409,18.4746205 0.914587414,18.5712003 C0.828862585,19.1097747 0.745976326,19.6494854 0.672173493,20.188628 C0.631865792,20.4795036 0.599506089,20.769243 0.563172386,21.0601187 C0.518890687,21.4134872 0.472338131,21.7668556 0.433165858,22.1202241 C0.391722728,22.4968853 0.358227597,22.8735466 0.323029322,23.2507759 C0.297482188,23.52404 0.267961055,23.797304 0.245252491,24.0717043 C0.212325073,24.4710902 0.187345653,24.8710442 0.16066309,25.2709982 C0.143631667,25.5266507 0.12319396,25.7834393 0.109001107,26.0390917 C0.0879956854,26.4242747 0.0749382611,26.8094577 0.0601776945,27.1946407 C0.0488234125,27.4684729 0.0351982741,27.7428731 0.0272502768,28.0167053 C0.0175991371,28.3678013 0.0158959948,28.7194654 0.011354282,29.0699933 C0.00738028329,29.3801849 0,29.6903765 0,30 C0,30.3096235 0.00738028329,30.6198151 0.011354282,30.9300067 C0.0158959948,31.2805346 0.0175991371,31.6316306 0.0272502768,31.9832947 C0.0351982741,32.2571269 0.0488234125,32.5309591 0.0601776945,32.8053593 C0.0749382611,33.1905423 0.0879956854,33.5757253 0.109001107,33.9609083 C0.12319396,34.2165607 0.143631667,34.4727813 0.16066309,34.7290018 C0.187345653,35.1289558 0.212325073,35.5289099 0.245252491,35.9282958 C0.267961055,36.2021279 0.297482188,36.4759601 0.323029322,36.7492241 C0.358227597,37.1258854 0.391722728,37.5025466 0.433165858,37.879776 C0.472338131,38.2331444 0.518890687,38.5865129 0.563172386,38.9398814 C0.599506089,39.2301889 0.631865792,39.5204964 0.672173493,39.8113721 C0.745976326,40.3505146 0.828862585,40.8896572 0.914587414,41.4287998 C0.930483409,41.5253796 0.942973119,41.6213913 0.958869114,41.7168348 C1.18311618,43.0894043 1.44483238,44.4614057 1.74799171,45.8305665 C3.19395952,52.3644744 7.42740356,56.668525 13.8823129,58.1956222 C14.1673053,58.2762948 14.4557041,58.3535586 14.7503477,58.4245732 C15.0166056,58.4882022 15.2913793,58.5268341 15.5689915,58.5569443 C20.3656079,59.5170612 25.182662,60.0050733 29.9997161,59.9999602 C34.8167703,60.0050733 39.6338244,59.5170612 44.4304408,58.5569443 C44.7086207,58.5268341 44.9828266,58.4882022 45.2490846,58.4245732 C45.5437282,58.3535586 45.8326947,58.2762948 46.1176871,58.1950541 C52.5725964,56.668525 56.8060405,52.3639063 58.2520083,45.8305665 C58.5551676,44.4614057 58.8163161,43.0894043 59.0411309,41.7168348 C59.0564592,41.6219594 59.0689489,41.5265158 59.0842772,41.4316404 C59.1705697,40.8907934 59.2540237,40.3505146 59.3278265,39.8102358" id="path-1"></path>
        <filter x="-33.3%" y="-16.7%" width="166.7%" height="166.7%" filterUnits="objectBoundingBox" id="filter-2">
            <feOffset dx="0" dy="10" in="SourceAlpha" result="shadowOffsetOuter1"></feOffset>
            <feGaussianBlur stdDeviation="5" in="shadowOffsetOuter1" result="shadowBlurOuter1"></feGaussianBlur>
            <feColorMatrix values="0 0 0 0 0.584313725   0 0 0 0 0.68627451   0 0 0 0 0.752941176  0 0 0 0.3 0" type="matrix" in="shadowBlurOuter1"></feColorMatrix>
        </filter>
    </defs>
    <g id="Page-1" stroke="none" stroke-width="1" fill="none" fill-rule="evenodd">
        <g id="Form-builder" transform="translate(-788.000000, -592.000000)">
            <g id="Group-7" transform="translate(798.000000, 592.000000)">
                <g id="Combined-Shape-Copy-12">
                    <use fill="black" fill-opacity="1" filter="url(#filter-2)" xlink:href="#path-1"></use>
                    <use fill="#95AFC0" fill-rule="evenodd" xlink:href="#path-1"></use>
                </g>
                <path d="M39.3026152,22.9638854 L37.011208,20.6724782 C36.1145704,19.7758406 34.5205479,19.7758406 33.6239103,20.6724782 L29.6388543,24.856787 C28.7422167,25.7534247 28.7422167,27.2478207 29.6388543,28.2440847 L30.0373599,28.6425903 L28.6425903,30.0373599 L28.1444583,29.5392279 C27.2478207,28.6425903 25.6537983,28.6425903 24.7571606,29.5392279 L20.6724782,33.6239103 C19.7758406,34.5205479 19.7758406,36.014944 20.6724782,37.011208 L23.0635118,39.3026152 C23.4620174,39.8007472 24.0597758,40 24.6575342,40 C25.2552927,40 25.8530511,39.8007472 26.3511831,39.3026152 L30.4358655,35.2179328 C30.8343711,34.8194271 31.1332503,34.2216687 31.1332503,33.5242839 C31.1332503,32.9265255 30.9339975,32.3287671 30.4358655,31.8306351 L30.0373599,31.4321295 L31.4321295,30.0373599 L31.8306351,30.4358655 C32.2291407,30.8343711 32.8268991,31.1332503 33.5242839,31.1332503 C34.1220423,31.1332503 34.7198007,30.9339975 35.2179328,30.4358655 L39.3026152,26.3511831 C39.7011208,25.9526775 40,25.3549191 40,24.6575342 C40,24.0597758 39.8007472,23.4620174 39.3026152,22.9638854 Z M29.0410959,33.3250311 C29.1407223,33.4246575 29.1407223,33.5242839 29.1407223,33.6239103 C29.1407223,33.7235367 29.1407223,33.8231631 29.0410959,33.9227895 L24.9564134,38.007472 C24.7571606,38.2067248 24.6575342,38.2067248 24.4582814,38.007472 L22.1668742,35.7160648 C22.0672478,35.6164384 22.0672478,35.3175592 22.1668742,35.2179328 L26.2515567,31.0336239 C26.3511831,30.9339975 26.4508095,30.9339975 26.5504359,30.9339975 C26.6500623,30.9339975 26.7496887,30.9339975 26.8493151,31.0336239 L27.2478207,31.4321295 L25.8530511,32.8268991 L27.2478207,34.2216687 L28.6425903,32.8268991 L29.0410959,33.3250311 Z M37.9078456,24.9564134 L33.8231631,29.0410959 C33.6239103,29.2403487 33.5242839,29.2403487 33.3250311,29.0410959 L32.9265255,28.6425903 L34.3212951,27.2478207 L32.9265255,25.8530511 L31.5317559,27.2478207 L31.0336239,26.7496887 C30.9339975,26.6500623 30.9339975,26.3511831 31.0336239,26.2515567 L35.1183064,22.1668742 C35.2179328,22.0672478 35.3175592,22.0672478 35.4171856,22.0672478 C35.516812,22.0672478 35.6164384,22.0672478 35.7160648,22.1668742 L38.007472,24.4582814 C38.007472,24.5579078 38.007472,24.6575342 38.007472,24.6575342 C38.007472,24.7571606 38.007472,24.856787 37.9078456,24.9564134 Z" id="Shape" fill="#FFFFFF" fill-rule="nonzero"></path>
            </g>
        </g>
    </g>
</svg>