<svg xmlns="http://www.w3.org/2000/svg" width="19" height="17" viewBox="0 0 19 17" fill="none">
    <path d="M14.9167 15.75V10.75M12.4167 13.25H17.4167M9.08333 10.75H5.75C4.19686 10.75 3.42029 10.75 2.80772 11.0037C1.99096 11.342 1.34205 11.991 1.00373 12.8077C0.75 13.4203 0.75 14.1969 0.75 15.75M12 0.992299C13.2216 1.48679 14.0833 2.68443 14.0833 4.08333C14.0833 5.48224 13.2216 6.67988 12 7.17437M10.3333 4.08333C10.3333 5.92428 8.84095 7.41667 7 7.41667C5.15905 7.41667 3.66667 5.92428 3.66667 4.08333C3.66667 2.24238 5.15905 0.75 7 0.75C8.84095 0.75 10.3333 2.24238 10.3333 4.08333Z" stroke="white" stroke-width="1.5" stroke-linecap="round" stroke-linejoin="round"/>
</svg>