<svg xmlns="http://www.w3.org/2000/svg" width="20" height="20" viewBox="0 0 20 20" fill="none">
    <g clip-path="url(#clip0_10273_5411)">
        <path d="M7.08332 12.9167L12.9167 7.0834M7.49999 3.33341V1.66675M12.5 16.6667V18.3334M3.33332 7.50008H1.66666M16.6667 12.5001H18.3333M4.09517 4.09526L2.91666 2.91675M15.9048 15.9048L17.0833 17.0833M10 14.7141L8.23225 16.4818C6.9305 17.7836 4.81995 17.7836 3.51821 16.4818C2.21646 15.1801 2.21646 13.0695 3.51821 11.7678L5.28597 10M14.7141 10L16.4818 8.23224C17.7836 6.93049 17.7836 4.81994 16.4818 3.5182C15.1801 2.21645 13.0695 2.21645 11.7678 3.5182L10 5.28596" stroke="#8895A0" stroke-width="1.5" stroke-linecap="round" stroke-linejoin="round"/>
    </g>
    <defs>
        <clipPath id="clip0_10273_5411">
            <rect width="20" height="20" fill="white"/>
        </clipPath>
    </defs>
</svg>