<svg width="320" height="22" viewBox="0 0 320 22" fill="none" xmlns="http://www.w3.org/2000/svg">
<rect width="320" height="22" fill="url(#paint0_linear_1230_22878)"/>
<path d="M153.992 15H152.312L148.508 9.252V15H146.828V6.612H148.508L152.312 12.372V6.612H153.992V15ZM157.332 7.98V10.08H160.152V11.412H157.332V13.632H160.512V15H155.652V6.612H160.512V7.98H157.332ZM173.235 6.624L170.895 15H168.915L167.343 9.036L165.699 15L163.731 15.012L161.475 6.624H163.275L164.751 13.128L166.455 6.624H168.327L169.935 13.092L171.423 6.624H173.235Z" fill="white"/>
<path d="M65.382 4.62658C65.5403 4.38285 65.918 4.48405 65.9332 4.77427L65.9987 6.02362C66.0055 6.15341 66.0951 6.26406 66.2207 6.2977L67.4291 6.6215C67.7098 6.69672 67.7303 7.0872 67.459 7.19135L66.291 7.63969C66.1696 7.68627 66.0921 7.80568 66.0989 7.93547L66.1644 9.18482C66.1796 9.47504 65.8145 9.61517 65.6316 9.38932L64.8443 8.41706C64.7625 8.31605 64.625 8.2792 64.5037 8.32578L63.3357 8.77412C63.0644 8.87827 62.8183 8.57439 62.9766 8.33065L63.658 7.28142C63.7288 7.17242 63.7213 7.03024 63.6395 6.92923L62.8522 5.95697C62.6693 5.73112 62.8823 5.40318 63.163 5.4784L64.3714 5.8022C64.497 5.83584 64.6299 5.78481 64.7007 5.67581L65.382 4.62658Z" fill="white" fill-opacity="0.5"/>
<path d="M102.533 13.5139C102.694 13.2866 103.051 13.3822 103.076 13.6595L103.226 15.2666C103.234 15.3538 103.279 15.4331 103.351 15.4837L104.668 16.4165C104.895 16.5774 104.8 16.9342 104.522 16.96L102.915 17.1093C102.828 17.1174 102.749 17.1631 102.698 17.2346L101.765 18.5517C101.605 18.779 101.248 18.6834 101.222 18.4061L101.073 16.799C101.065 16.7118 101.019 16.6325 100.947 16.5819L99.6302 15.6491C99.4029 15.4882 99.4985 15.1313 99.7758 15.1056L101.383 14.9563C101.47 14.9482 101.549 14.9025 101.6 14.831L102.533 13.5139Z" fill="white"/>
<path d="M188.437 9.26113C188.599 9.0473 188.939 9.13842 188.973 9.40487L189.164 10.9045C189.167 10.9314 189.174 10.9577 189.185 10.9828L189.769 12.3767C189.873 12.6244 189.624 12.8733 189.377 12.7694L187.983 12.1846C187.958 12.1741 187.931 12.167 187.904 12.1636L186.405 11.9731C186.138 11.9393 186.047 11.5992 186.261 11.4367L187.465 10.5219C187.486 10.5055 187.505 10.4862 187.522 10.4646L188.437 9.26113Z" fill="white" fill-opacity="0.5"/>
<path d="M219.382 11.6266C219.541 11.3828 219.918 11.4841 219.933 11.7743L219.999 13.0236C220.006 13.1534 220.095 13.2641 220.221 13.2977L221.429 13.6215C221.71 13.6967 221.731 14.0872 221.459 14.1914L220.291 14.6397C220.17 14.6863 220.092 14.8057 220.099 14.9355L220.165 16.1848C220.18 16.475 219.815 16.6152 219.632 16.3893L218.845 15.4171C218.763 15.3161 218.625 15.2792 218.504 15.3258L217.336 15.7741C217.065 15.8783 216.819 15.5744 216.977 15.3307L217.658 14.2814C217.729 14.1724 217.722 14.0302 217.64 13.9292L216.852 12.957C216.67 12.7311 216.883 12.4032 217.163 12.4784L218.372 12.8022C218.497 12.8358 218.63 12.7848 218.701 12.6758L219.382 11.6266Z" fill="white"/>
<path d="M311.204 3.30599C311.365 3.07872 311.722 3.17433 311.748 3.45163L311.838 4.4232C311.846 4.51038 311.892 4.58968 311.963 4.64028L312.76 5.20421C312.987 5.36516 312.891 5.72199 312.614 5.74775L311.642 5.83798C311.555 5.84608 311.476 5.89186 311.425 5.96331L310.861 6.7596C310.701 6.98687 310.344 6.89126 310.318 6.61396L310.228 5.64239C310.22 5.55521 310.174 5.47591 310.102 5.42531L309.306 4.86138C309.079 4.70043 309.174 4.3436 309.452 4.31784L310.423 4.22761C310.51 4.21951 310.59 4.17373 310.64 4.10228L311.204 3.30599Z" fill="white"/>
<path d="M8.19989 15.3016C8.36085 15.0743 8.71768 15.1699 8.74343 15.4472L8.83366 16.4188C8.84176 16.506 8.88754 16.5853 8.959 16.6359L9.75528 17.1998C9.98255 17.3608 9.88694 17.7176 9.60964 17.7434L8.63807 17.8336C8.55089 17.8417 8.4716 17.8875 8.42099 17.9589L7.85706 18.7552C7.69611 18.9825 7.33928 18.8869 7.31353 18.6096L7.22329 17.638C7.21519 17.5508 7.16941 17.4715 7.09796 17.4209L6.30168 16.857C6.0744 16.696 6.17002 16.3392 6.44732 16.3135L7.41888 16.2232C7.50607 16.2151 7.58536 16.1693 7.63596 16.0979L8.19989 15.3016Z" fill="white"/>
<defs>
<linearGradient id="paint0_linear_1230_22878" x1="0" y1="11" x2="5.27598" y2="51.749" gradientUnits="userSpaceOnUse">
<stop stop-color="#90DC6C"/>
<stop offset="1" stop-color="#4DD7B1"/>
</linearGradient>
</defs>
</svg>
