<svg xmlns="http://www.w3.org/2000/svg" width="22" height="22" viewBox="0 0 22 22" fill="none">
    <g clip-path="url(#clip0_7173_51621)">
        <path d="M11 1.83337L11.5885 1.83796L12.1531 1.85354L12.4272 1.86546L12.958 1.89662L13.4649 1.93879C17.7613 2.35587 19.5607 4.07737 20.0337 8.26929L20.0612 8.53512L20.1034 9.04204L20.141 9.70846L20.1465 9.84596L20.1621 10.4115L20.1666 11L20.1621 11.5885L20.1465 12.1532L20.1346 12.4273L20.1034 12.958L20.0612 13.465C19.6441 17.7614 17.9226 19.5608 13.7307 20.0338L13.4649 20.0613L12.958 20.1035L12.2916 20.141L12.1541 20.1465L11.5885 20.1621L11 20.1667L10.4115 20.1621L9.84681 20.1465L9.57273 20.1346L9.04198 20.1035L8.53506 20.0613C4.23865 19.6442 2.43923 17.9227 1.96623 13.7308L1.93873 13.465L1.89656 12.958L1.85898 12.2916L1.85348 12.1541L1.8379 11.5885L1.83423 11.297V10.703L1.8379 10.4115L1.85348 9.84687L1.8654 9.57279L1.89656 9.04204L1.93873 8.53512C2.35581 4.23871 4.07731 2.43929 8.26923 1.96629L8.53506 1.93879L9.04198 1.89662L9.7084 1.85904L9.84589 1.85354L10.4115 1.83796C10.604 1.83521 10.8001 1.83337 11 1.83337ZM11 10.0834H10.0833L9.97606 10.0898C9.75327 10.1163 9.54793 10.2236 9.39894 10.3913C9.24995 10.5591 9.16767 10.7757 9.16767 11C9.16767 11.2244 9.24995 11.441 9.39894 11.6087C9.54793 11.7765 9.75327 11.8838 9.97606 11.9103L10.0833 11.9167V14.6667L10.0897 14.774C10.1139 14.9786 10.2062 15.1691 10.3519 15.3148C10.4976 15.4605 10.6881 15.5528 10.8927 15.577L11 15.5834H11.9166L12.0239 15.577C12.2285 15.5528 12.419 15.4605 12.5647 15.3148C12.7104 15.1691 12.8028 14.9786 12.8269 14.774L12.8333 14.6667L12.8269 14.5595C12.805 14.3724 12.726 14.1967 12.6007 14.0561C12.4754 13.9156 12.3098 13.817 12.1266 13.7739L12.0239 13.7555L11.9166 13.75V11L11.9102 10.8928C11.8861 10.6882 11.7937 10.4977 11.6481 10.352C11.5024 10.2063 11.3118 10.1139 11.1072 10.0898L11 10.0834ZM11.0091 7.33337L10.8927 7.33979C10.6699 7.36629 10.4646 7.47358 10.3156 7.64134C10.1666 7.8091 10.0843 8.02567 10.0843 8.25004C10.0843 8.47441 10.1666 8.69098 10.3156 8.85874C10.4646 9.0265 10.6699 9.13379 10.8927 9.16029L11 9.16671L11.1164 9.16029C11.3392 9.13379 11.5445 9.0265 11.6935 8.85874C11.8425 8.69098 11.9248 8.47441 11.9248 8.25004C11.9248 8.02567 11.8425 7.8091 11.6935 7.64134C11.5445 7.47358 11.3392 7.36629 11.1164 7.33979L11.0091 7.33337Z" fill="#5685FF"/>
    </g>
    <defs>
        <clipPath id="clip0_7173_51621">
            <rect width="22" height="22" fill="white"/>
        </clipPath>
    </defs>
</svg>