<svg width="80" height="80" viewBox="0 0 80 80" fill="none" xmlns="http://www.w3.org/2000/svg">    <path d="M0 40C0 17.9086 17.9086 0 40 0V0C62.0914 0 80 17.9086 80 40V40C80 62.0914 62.0914 80 40 80V80C17.9086 80 0 62.0914 0 40V40Z" fill="#E3EBF4"/>    <path d="M44.2 49H34.9314C34.3256 49 34.0226 49 33.8824 48.8802C33.7607 48.7763 33.6961 48.6203 33.7086 48.4608C33.7231 48.2769 33.9373 48.0627 34.3657 47.6343L42.8686 39.1314C43.2646 38.7354 43.4627 38.5373 43.691 38.4632C43.8918 38.3979 44.1082 38.3979 44.309 38.4632C44.5373 38.5373 44.7354 38.7354 45.1314 39.1314L49 43V44.2M44.2 49C45.8802 49 46.7202 49 47.362 48.673C47.9265 48.3854 48.3854 47.9265 48.673 47.362C49 46.7202 49 45.8802 49 44.2M44.2 49H35.8C34.1198 49 33.2798 49 32.638 48.673C32.0735 48.3854 31.6146 47.9265 31.327 47.362C31 46.7202 31 45.8802 31 44.2V35.8C31 34.1198 31 33.2798 31.327 32.638C31.6146 32.0735 32.0735 31.6146 32.638 31.327C33.2798 31 34.1198 31 35.8 31H44.2C45.8802 31 46.7202 31 47.362 31.327C47.9265 31.6146 48.3854 32.0735 48.673 32.638C49 33.2798 49 34.1198 49 35.8V44.2M38.5 36.5C38.5 37.6046 37.6046 38.5 36.5 38.5C35.3954 38.5 34.5 37.6046 34.5 36.5C34.5 35.3954 35.3954 34.5 36.5 34.5C37.6046 34.5 38.5 35.3954 38.5 36.5Z" stroke="#8895A0" stroke-width="2" stroke-linecap="round" stroke-linejoin="round"/></svg>