<svg xmlns="http://www.w3.org/2000/svg" width="60" height="60" viewBox="0 0 60 60" fill="none">
  <path d="M59.3278 39.8102C59.3676 39.5205 59.4005 39.2302 59.4368 38.9404C59.4811 38.5876 59.5277 38.2343 59.5663 37.8809C59.6077 37.5037 59.6412 37.127 59.677 36.7509C59.7025 36.4765 59.732 36.2021 59.7547 35.9277C59.7877 35.5278 59.8127 35.1278 59.8388 34.7273C59.8558 34.4722 59.8762 34.2171 59.8904 33.9615C59.9114 33.5752 59.9251 33.1888 59.9398 32.8025C59.9506 32.5293 59.9648 32.256 59.9722 31.9833C59.9818 31.6316 59.9841 31.2805 59.9886 30.93C59.9926 30.6198 60 30.3096 60 30C60 29.6904 59.9926 29.3802 59.9886 29.07C59.9841 28.7195 59.9818 28.3678 59.9722 28.0167C59.9648 27.744 59.9506 27.4707 59.9398 27.1975C59.9251 26.8112 59.9114 26.4243 59.8904 26.0385C59.8762 25.7834 59.8558 25.5278 59.8388 25.2727C59.8127 24.8722 59.7877 24.4722 59.7547 24.0723C59.732 23.7979 59.7025 23.5235 59.677 23.2491C59.6412 22.873 59.6077 22.4957 59.5663 22.1191C59.5277 21.7657 59.4811 21.4129 59.4368 21.0596C59.4005 20.7692 59.3676 20.4795 59.3278 20.1898C59.254 19.6495 59.1706 19.1092 59.0843 18.5684C59.069 18.4729 59.0565 18.3775 59.0411 18.2826C58.8163 16.91 58.5552 15.5386 58.252 14.1694C56.806 7.63609 52.5726 3.33148 46.1177 1.80438C45.8327 1.72371 45.5437 1.64644 45.2491 1.57599C44.9828 1.5118 44.7086 1.47317 44.4304 1.44249C39.6338 0.482371 34.8168 -0.00507324 29.9997 3.98103e-05C25.1827 -0.00507324 20.3656 0.482371 15.569 1.44249C15.2914 1.47317 15.0166 1.5118 14.7503 1.57599C14.4557 1.64644 14.1673 1.72371 13.8823 1.80438C7.4274 3.33148 3.19396 7.63553 1.74799 14.1694C1.44483 15.5386 1.18312 16.91 0.958869 18.2826C0.942973 18.3786 0.930483 18.4746 0.914587 18.5712C0.828863 19.1098 0.745976 19.6495 0.672174 20.1886C0.631866 20.4795 0.599506 20.7692 0.563172 21.0601C0.518891 21.4135 0.472338 21.7669 0.433166 22.1202C0.391723 22.4969 0.358228 22.8735 0.323029 23.2508C0.297482 23.524 0.267961 23.7973 0.245252 24.0717C0.212325 24.4711 0.187346 24.871 0.160663 25.271C0.143632 25.5267 0.123194 25.7834 0.109001 26.0391C0.0879957 26.4243 0.0749383 26.8095 0.0601777 27.1946C0.0488234 27.4685 0.0351983 27.7429 0.0272503 28.0167C0.0175991 28.3678 0.015896 28.7195 0.0113543 29.07C0.00738028 29.3802 0 29.6904 0 30C0 30.3096 0.00738028 30.6198 0.0113543 30.93C0.015896 31.2805 0.0175991 31.6316 0.0272503 31.9833C0.0351983 32.2571 0.0488234 32.531 0.0601777 32.8054C0.0749383 33.1905 0.0879957 33.5757 0.109001 33.9609C0.123194 34.2166 0.143632 34.4728 0.160663 34.729C0.187346 35.129 0.212325 35.5289 0.245252 35.9283C0.267961 36.2021 0.297482 36.476 0.323029 36.7492C0.358228 37.1259 0.391723 37.5025 0.433166 37.8798C0.472338 38.2331 0.518891 38.5865 0.563172 38.9399C0.599506 39.2302 0.631866 39.5205 0.672174 39.8114C0.745976 40.3505 0.828863 40.8897 0.914587 41.4288C0.930483 41.5254 0.942973 41.6214 0.958869 41.7168C1.18312 43.0894 1.44483 44.4614 1.74799 45.8306C3.19396 52.3645 7.4274 56.6685 13.8823 58.1956C14.1673 58.2763 14.4557 58.3536 14.7503 58.4246C15.0166 58.4882 15.2914 58.5268 15.569 58.5569C20.3656 59.5171 25.1827 60.0051 29.9997 60C34.8168 60.0051 39.6338 59.5171 44.4304 58.5569C44.7086 58.5268 44.9828 58.4882 45.2491 58.4246C45.5437 58.3536 45.8327 58.2763 46.1177 58.1951C52.5726 56.6685 56.806 52.3639 58.252 45.8306C58.5552 44.4614 58.8163 43.0894 59.0411 41.7168C59.0565 41.622 59.069 41.5265 59.0843 41.4316C59.1706 40.8908 59.254 40.3505 59.3278 39.8102Z" fill="#26C0D6" fill-opacity="0.1"/>
  <path d="M30 30C35 30 39 34 39 39C39 39.6 38.6 40 38 40H22C21.4 40 21 39.6 21 39C21 34 25 30 30 30ZM23.1 38H36.9C36.4 34.6 33.5 32 30 32C26.5 32 23.6 34.6 23.1 38ZM30 29C27.5 29 25.5 27 25.5 24.5C25.5 22 27.5 20 30 20C32.5 20 34.5 22 34.5 24.5C34.5 27 32.5 29 30 29ZM30 22C28.6 22 27.5 23.1 27.5 24.5C27.5 25.9 28.6 27 30 27C31.4 27 32.5 25.9 32.5 24.5C32.5 23.1 31.4 22 30 22Z" fill="#26C0D6"/>
</svg>