<?xml version="1.0" encoding="UTF-8"?>
<svg width="76px" height="56px" viewBox="0 0 76 56" version="1.1" xmlns="http://www.w3.org/2000/svg" xmlns:xlink="http://www.w3.org/1999/xlink">
    <!-- Generator: sketchtool 61 (101010) - https://sketch.com -->
    <title>C1A6B747-CD95-4026-9034-BF77EEE74165</title>
    <desc>Created with sketchtool.</desc>
    <g id="SAAS" stroke="none" stroke-width="1" fill="none" fill-rule="evenodd">
        <g id="Payment-method" transform="translate(-42, 0)" fill="#676EED">
            <g id="Group">
                <path d="M44.1204212,0.00317746056 C42.9125737,0.133518797 41.9978594,1.15219098 42.0000175,2.36454668 L42.0000175,14.1065593 L42.0000175,21.8249887 L42.0000175,53.6201108 C41.9950309,54.9293169 43.0543783,55.9947561 44.3663171,56 L115.633647,56 C116.9456,55.9947758 118.004969,54.9293308 117.999982,53.6201108 L117.999982,21.8249887 L117.999982,14.1065593 L117.999982,2.36454668 C117.99475,1.06255327 116.938359,0.00837188042 115.633647,0.00317746056 L44.3663171,0.00317746056 C44.2843978,-0.00105915352 44.2023136,-0.00105915352 44.1203943,0.00317746056 L44.1204212,0.00317746056 Z M46.7326348,4.72591591 L113.267356,4.72591591 L113.267356,11.7266701 L46.7326348,11.7266701 L46.7326348,4.72591591 Z M46.7326348,16.4679285 L113.267356,16.4679285 L113.267356,19.4450995 L46.7326348,19.4450995 L46.7326348,16.4679285 Z M46.7326348,24.1863579 L113.267356,24.1863579 L113.267356,51.2587415 L46.7326348,51.2587415 L46.7326348,24.1863579 Z M89.9941352,30.2147889 C85.2912995,30.2152637 81.4295395,34.068995 81.4290636,38.7620136 C81.4295395,43.4550412 85.2912995,47.3133958 89.9941352,47.3138706 C91.568499,47.3128492 93.086235,46.8496607 94.4112103,46.0498415 C95.7050928,46.8356206 97.2053475,47.3138706 98.8190284,47.3138706 C103.522502,47.3138706 107.388733,43.4556953 107.388733,38.7620136 C107.388733,34.068332 103.522502,30.2147889 98.8190284,30.2147889 C97.2067931,30.2147889 95.7089715,30.6943202 94.4158432,31.478818 C93.0897276,30.6770904 91.5704473,30.2158103 89.9941352,30.2147889 L89.9941352,30.2147889 Z M55.0100241,32.2011166 C54.1487642,32.1820732 53.3446335,32.6297013 52.9084003,33.3710083 C52.4721672,34.1123154 52.4721672,35.0311762 52.9084003,35.7724833 C53.3446335,36.5137903 54.1487642,36.9614184 55.0100241,36.942375 L71.6019654,36.942375 C72.4632253,36.9614184 73.267356,36.5137903 73.7035892,35.7724833 C74.1398223,35.0311762 74.1398223,34.1123154 73.7035892,33.3710083 C73.267356,32.6297013 72.4632253,32.1820732 71.6019654,32.2011166 L55.0100241,32.2011166 Z M98.8190284,34.9514151 C100.955926,34.9514151 102.637575,36.6295597 102.637575,38.7620136 C102.637575,40.8944765 100.955926,42.5726122 98.8190284,42.5726122 C97.7978158,42.5726122 96.8861597,42.1868905 96.2068148,41.5539844 C96.1726049,41.5126509 96.1369994,41.4724876 96.1000597,41.433564 C95.5743649,40.9003632 95.219173,40.2251755 95.0746631,39.5027963 C95.0270767,39.2614179 95.0055282,39.0117964 95.0046303,38.7619957 C95.0048907,38.512195 95.0261789,38.2624839 95.0746631,38.0211951 C95.2191281,37.2987621 95.57432,36.6282515 96.1000597,36.0950597 C96.1352604,36.0591152 96.1693064,36.0220624 96.2021459,35.9839575 C96.8821822,35.3470015 97.7941167,34.951442 98.8189925,34.951442 L98.8190284,34.9514151 Z M89.9941352,34.9560473 C90.3652191,34.9563699 90.7310057,35.0098064 91.0798408,35.1134719 C91.0547008,35.1672311 91.0439265,35.2262765 91.0196844,35.2801252 C90.8329304,35.6921888 90.6987009,36.1290713 90.5789269,36.5719299 C90.5457062,36.6945007 90.4900391,36.808918 90.4629238,36.9331016 C90.3313879,37.5248999 90.2540825,38.1328438 90.2540825,38.7620047 C90.254081,38.7635488 90.254081,38.7650928 90.2540825,38.7666369 C90.2540825,38.7773887 90.2586706,38.7881406 90.2587154,38.7988924 C90.2614719,39.4147927 90.3341354,40.0155239 90.4628879,40.5953787 C90.4907215,40.7194727 90.5463885,40.83389 90.5788909,40.9565504 C90.6986649,41.3994359 90.8328944,41.8363183 91.0196485,42.2483641 C91.0438906,42.3021232 91.0546649,42.3616166 91.0798049,42.4150173 C90.7309878,42.5185036 90.3651114,42.5720835 89.9940993,42.5724419 C87.8580996,42.571752 86.17602,40.8934282 86.1755261,38.7618434 C86.17602,36.6302496 87.8580996,34.9565491 89.9940993,34.9558681 L89.9941352,34.9560473 Z M54.782678,39.3222643 C53.4706644,39.3865215 52.4587554,40.4991321 52.5214764,41.8084926 C52.5841973,43.117853 53.6978419,44.1290692 55.0100151,44.068146 L62.0949889,44.068146 C62.9452252,44.0691887 63.7313234,43.6171369 64.1567435,42.8825182 C64.5821637,42.1478995 64.5821637,41.2425108 64.1567435,40.5078921 C63.7313234,39.7732733 62.9452252,39.3212215 62.0949889,39.3222643 L55.0100151,39.3222643 C54.9342795,39.3186442 54.8584136,39.3186442 54.782678,39.3222643 Z" id="Shape" fill-rule="nonzero"></path>
            </g>
        </g>
    </g>
</svg>