<svg width="20" height="20" viewBox="0 0 20 20" fill="none" xmlns="http://www.w3.org/2000/svg">
<path d="M0 4C0 1.79086 1.79086 0 4 0H16C18.2091 0 20 1.79086 20 4V16C20 18.2091 18.2091 20 16 20H4C1.79086 20 0 18.2091 0 16V4Z" fill="#7E82FF"/>
<path d="M10.6667 3.33333L4.72897 10.4586C4.49643 10.7376 4.38016 10.8771 4.37839 10.995C4.37684 11.0974 4.42249 11.1949 4.50217 11.2593C4.59383 11.3333 4.77545 11.3333 5.13869 11.3333H10L9.33333 16.6667L15.271 9.54143C15.5036 9.26238 15.6198 9.12286 15.6216 9.00502C15.6232 8.90259 15.5775 8.80513 15.4978 8.74074C15.4062 8.66667 15.2246 8.66667 14.8613 8.66667H10L10.6667 3.33333Z" fill="white"/>
</svg>
