<svg xmlns="http://www.w3.org/2000/svg" width="20" height="20" viewBox="0 0 20 20" fill="none">
    <g clip-path="url(#clip0_1914_44333)">
        <path d="M4.16677 11.6667H15.1132C15.9572 11.6667 16.3792 11.6667 16.7152 11.5093C17.0111 11.3707 17.2598 11.1481 17.4303 10.8693C17.6238 10.5528 17.6704 10.1334 17.7636 9.29451L18.2511 4.90697C18.2795 4.65076 18.2938 4.52265 18.2526 4.42349C18.2164 4.3364 18.1517 4.26416 18.0692 4.21858C17.9752 4.16669 17.8463 4.16669 17.5885 4.16669H3.75011M1.66666 1.66669H2.70702C2.92754 1.66669 3.0378 1.66669 3.12406 1.70862C3.2 1.74554 3.26294 1.80467 3.30452 1.87816C3.35176 1.96163 3.35864 2.07168 3.37239 2.29177L4.12759 14.3749C4.14134 14.595 4.14822 14.7051 4.19546 14.7886C4.23704 14.862 4.29998 14.9212 4.37592 14.9581C4.46218 15 4.57244 15 4.79296 15H15.8333M6.24999 17.9167H6.25832M13.75 17.9167H13.7583M6.66666 17.9167C6.66666 18.1468 6.48011 18.3334 6.24999 18.3334C6.01987 18.3334 5.83332 18.1468 5.83332 17.9167C5.83332 17.6866 6.01987 17.5 6.24999 17.5C6.48011 17.5 6.66666 17.6866 6.66666 17.9167ZM14.1667 17.9167C14.1667 18.1468 13.9801 18.3334 13.75 18.3334C13.5199 18.3334 13.3333 18.1468 13.3333 17.9167C13.3333 17.6866 13.5199 17.5 13.75 17.5C13.9801 17.5 14.1667 17.6866 14.1667 17.9167Z" stroke="white" stroke-width="1.5" stroke-linecap="round" stroke-linejoin="round"/>
    </g>
    <defs>
        <clipPath id="clip0_1914_44333">
            <rect width="20" height="20" fill="white"/>
        </clipPath>
    </defs>
</svg>