<svg xmlns="http://www.w3.org/2000/svg" width="16" height="16" viewBox="0 0 16 16" fill="none">
    <path d="M10.6669 5.99998V3.99998C10.6669 2.52722 9.47302 1.33331 8.00026 1.33331C6.5275 1.33331 5.33359 2.52722 5.33359 3.99998V5.99998M2.39493 6.90129L1.99493 11.168C1.88119 12.3811 1.82433 12.9877 2.02562 13.4562C2.20246 13.8677 2.51234 14.208 2.9056 14.4225C3.35327 14.6666 3.9625 14.6666 5.18095 14.6666H10.8196C12.038 14.6666 12.6472 14.6666 13.0949 14.4225C13.4882 14.208 13.7981 13.8677 13.9749 13.4562C14.1762 12.9877 14.1193 12.3811 14.0056 11.168L13.6056 6.90129C13.5095 5.87688 13.4615 5.36467 13.2311 4.97742C13.0283 4.63637 12.7285 4.36339 12.37 4.19321C11.9629 3.99998 11.4485 3.99998 10.4196 3.99998L5.58095 3.99998C4.55205 3.99998 4.0376 3.99998 3.63054 4.19321C3.27203 4.36339 2.97226 4.63637 2.76936 4.97742C2.53898 5.36467 2.49096 5.87688 2.39493 6.90129Z" stroke="black" stroke-width="1.5" stroke-linecap="round" stroke-linejoin="round"/>
</svg>