<svg width="18" height="20" viewBox="0 0 18 20" fill="none" xmlns="http://www.w3.org/2000/svg">
<path d="M12.3337 7.49984V4.99984C12.3337 3.15889 10.8413 1.6665 9.00033 1.6665C7.15938 1.6665 5.66699 3.15889 5.66699 4.99984V7.49984M1.99366 8.62648L1.49366 13.9598C1.3515 15.4762 1.28042 16.2344 1.53204 16.8201C1.75308 17.3345 2.14043 17.7599 2.63201 18.028C3.1916 18.3332 3.95313 18.3332 5.4762 18.3332H12.5245C14.0475 18.3332 14.8091 18.3332 15.3686 18.028C15.8602 17.7599 16.2476 17.3345 16.4686 16.8201C16.7202 16.2344 16.6492 15.4762 16.507 13.9598L16.007 8.62648C15.8869 7.34596 15.8269 6.7057 15.5389 6.22164C15.2853 5.79532 14.9106 5.4541 14.4625 5.24137C13.9537 4.99984 13.3106 4.99984 12.0245 4.99984L5.9762 4.99984C4.69007 4.99984 4.047 4.99984 3.53818 5.24137C3.09005 5.4541 2.71533 5.79532 2.46171 6.22164C2.17374 6.7057 2.11371 7.34596 1.99366 8.62648Z" stroke="white" stroke-width="1.5" stroke-linecap="round" stroke-linejoin="round"/>
</svg>
