<svg xmlns="http://www.w3.org/2000/svg" width="16" height="16" viewBox="0 0 16 16" fill="none">
  <path d="M2 4C2 3.86739 2.05268 3.74021 2.14645 3.64645C2.24021 3.55268 2.36739 3.5 2.5 3.5H13.5C13.6326 3.5 13.7598 3.55268 13.8536 3.64645C13.9473 3.74021 14 3.86739 14 4C14 4.13261 13.9473 4.25979 13.8536 4.35355C13.7598 4.44732 13.6326 4.5 13.5 4.5H2.5C2.36739 4.5 2.24021 4.44732 2.14645 4.35355C2.05268 4.25979 2 4.13261 2 4ZM2.5 8.5H7C7.13261 8.5 7.25979 8.44732 7.35355 8.35355C7.44732 8.25979 7.5 8.13261 7.5 8C7.5 7.86739 7.44732 7.74021 7.35355 7.64645C7.25979 7.55268 7.13261 7.5 7 7.5H2.5C2.36739 7.5 2.24021 7.55268 2.14645 7.64645C2.05268 7.74021 2 7.86739 2 8C2 8.13261 2.05268 8.25979 2.14645 8.35355C2.24021 8.44732 2.36739 8.5 2.5 8.5ZM8 11.5H2.5C2.36739 11.5 2.24021 11.5527 2.14645 11.6464C2.05268 11.7402 2 11.8674 2 12C2 12.1326 2.05268 12.2598 2.14645 12.3536C2.24021 12.4473 2.36739 12.5 2.5 12.5H8C8.13261 12.5 8.25979 12.4473 8.35355 12.3536C8.44732 12.2598 8.5 12.1326 8.5 12C8.5 11.8674 8.44732 11.7402 8.35355 11.6464C8.25979 11.5527 8.13261 11.5 8 11.5ZM14.8538 12.3538C14.8073 12.4002 14.7522 12.4371 14.6915 12.4623C14.6308 12.4874 14.5657 12.5004 14.5 12.5004C14.4343 12.5004 14.3692 12.4874 14.3085 12.4623C14.2478 12.4371 14.1927 12.4002 14.1462 12.3538L12.875 11.085C12.358 11.4261 11.7328 11.5631 11.1206 11.4696C10.5083 11.376 9.95261 11.0585 9.56109 10.5786C9.16958 10.0987 8.97014 9.4905 9.00144 8.87193C9.03273 8.25336 9.29253 7.66843 9.73048 7.23048C10.1684 6.79253 10.7534 6.53273 11.3719 6.50144C11.9905 6.47014 12.5987 6.66958 13.0786 7.06109C13.5585 7.45261 13.876 8.00833 13.9696 8.62058C14.0631 9.23284 13.9261 9.85802 13.585 10.375L14.8538 11.6438C14.9006 11.6902 14.9378 11.7455 14.9632 11.8065C14.9886 11.8674 15.0016 11.9327 15.0016 11.9987C15.0016 12.0648 14.9886 12.1301 14.9632 12.191C14.9378 12.252 14.9006 12.3073 14.8538 12.3538ZM11.5 10.5C11.7967 10.5 12.0867 10.412 12.3334 10.2472C12.58 10.0824 12.7723 9.84811 12.8858 9.57403C12.9994 9.29994 13.0291 8.99834 12.9712 8.70736C12.9133 8.41639 12.7704 8.14912 12.5607 7.93934C12.3509 7.72956 12.0836 7.5867 11.7926 7.52882C11.5017 7.47094 11.2001 7.50065 10.926 7.61418C10.6519 7.72771 10.4176 7.91997 10.2528 8.16665C10.088 8.41332 10 8.70333 10 9C10 9.39782 10.158 9.77936 10.4393 10.0607C10.7206 10.342 11.1022 10.5 11.5 10.5Z" fill="#9D9D9D"/>
</svg>