<svg width="15" height="8" viewBox="0 0 15 8" fill="none" xmlns="http://www.w3.org/2000/svg">
<path d="M0.457977 8.5C0.456706 8.49999 0.452499 8.49909 0.449188 8.49902C-0.0386541 8.0103 0.440501 7.50037 0.454071 7.5C0.461461 7.4999 0.539337 7.49906 0.68454 7.49902C1.42273 7.4988 2.19013 7.18243 2.95114 6.65137C3.70881 6.12261 4.42246 5.40731 5.04196 4.67578C5.65949 3.94654 6.17252 3.21469 6.53122 2.66406C6.7101 2.38945 6.84963 2.1609 6.94431 2.00195C6.99165 1.92247 7.02784 1.86003 7.05173 1.81836C7.0636 1.79764 7.07233 1.78172 7.07809 1.77148C7.08093 1.76645 7.08362 1.76308 7.08493 1.76074L7.08591 1.75781L7.51071 0.992187L7.95407 1.74609L7.95505 1.74707L7.95602 1.74902C7.95745 1.75143 7.95977 1.75558 7.96286 1.76074C7.96903 1.77107 7.97856 1.78683 7.99118 1.80762C8.01662 1.84951 8.05535 1.91246 8.10544 1.99219C8.20565 2.15168 8.35362 2.38102 8.54099 2.65625C8.91658 3.20796 9.44932 3.94109 10.081 4.67188C10.715 5.40526 11.4368 6.12299 12.1875 6.65332C12.944 7.18777 13.6835 7.49867 14.3633 7.49902C14.4118 7.49905 14.4421 7.49998 14.455 7.5H14.4677C14.4798 7.506 14.958 8.00066 14.4843 8.49902C14.4762 8.49934 14.4665 8.49998 14.4648 8.5L0.457977 8.5Z" fill="#CCD7DC" stroke="#CCD7DC"/>
</svg>
