<svg xmlns="http://www.w3.org/2000/svg" width="13" height="12" viewBox="0 0 13 12" fill="none">
  <path d="M6.50001 2.99999V5.71687L8.75751 7.07124C8.87122 7.13953 8.95314 7.2502 8.98526 7.3789C9.01738 7.5076 8.99705 7.64378 8.92876 7.75749C8.86046 7.8712 8.7498 7.95313 8.6211 7.98524C8.4924 8.01736 8.35622 7.99703 8.24251 7.92874L5.74251 6.42874C5.66852 6.38429 5.60729 6.32143 5.5648 6.2463C5.5223 6.17117 5.49998 6.08631 5.50001 5.99999V2.99999C5.50001 2.86738 5.55269 2.74021 5.64645 2.64644C5.74022 2.55267 5.8674 2.49999 6.00001 2.49999C6.13262 2.49999 6.25979 2.55267 6.35356 2.64644C6.44733 2.74021 6.50001 2.86738 6.50001 2.99999ZM12 1.49999C11.8674 1.49999 11.7402 1.55267 11.6465 1.64644C11.5527 1.74021 11.5 1.86738 11.5 1.99999V3.12499C11.1031 2.66499 10.6981 2.22187 10.2425 1.76062C9.40867 0.926682 8.34756 0.356964 7.19178 0.12265C6.03599 -0.111665 4.83679 -0.000185728 3.744 0.443158C2.65121 0.886501 1.7133 1.64205 1.04747 2.61539C0.381631 3.58874 0.0173935 4.73672 0.000266804 5.91589C-0.0168599 7.09506 0.313884 8.25313 0.951171 9.2454C1.58846 10.2377 2.50403 11.0201 3.58348 11.495C4.66293 11.9699 5.85839 12.1162 7.02049 11.9155C8.18259 11.7149 9.2598 11.1762 10.1175 10.3669C10.1653 10.3217 10.2037 10.2676 10.2305 10.2076C10.2574 10.1476 10.2722 10.083 10.274 10.0173C10.2759 9.95156 10.2648 9.88614 10.2414 9.82473C10.2179 9.76333 10.1826 9.70713 10.1375 9.65937C10.0924 9.6116 10.0383 9.57319 9.97827 9.54633C9.91829 9.51947 9.8536 9.50469 9.7879 9.50284C9.7222 9.50098 9.65678 9.51208 9.59538 9.53551C9.53397 9.55893 9.47778 9.59422 9.43001 9.63937C8.71503 10.3132 7.8174 10.7614 6.84921 10.9281C5.88101 11.0948 4.88516 10.9726 3.98601 10.5767C3.08687 10.1808 2.32427 9.52882 1.79345 8.70212C1.26264 7.87542 0.987128 6.91067 1.00133 5.92833C1.01553 4.94599 1.31881 3.98961 1.8733 3.1786C2.42779 2.36759 3.20892 1.73791 4.11913 1.36819C5.02935 0.99846 6.02832 0.905075 6.99129 1.09969C7.95426 1.29431 8.83856 1.76831 9.53376 2.46249C10.0425 2.97749 10.4881 3.47374 10.9375 3.99999H9.50001C9.3674 3.99999 9.24022 4.05267 9.14645 4.14644C9.05269 4.24021 9.00001 4.36738 9.00001 4.49999C9.00001 4.6326 9.05269 4.75978 9.14645 4.85354C9.24022 4.94731 9.3674 4.99999 9.50001 4.99999H12C12.1326 4.99999 12.2598 4.94731 12.3536 4.85354C12.4473 4.75978 12.5 4.6326 12.5 4.49999V1.99999C12.5 1.86738 12.4473 1.74021 12.3536 1.64644C12.2598 1.55267 12.1326 1.49999 12 1.49999Z" fill="#666670"/>
</svg>